<svg xmlns="http://www.w3.org/2000/svg" xmlns:xlink="http://www.w3.org/1999/xlink" width="100.792" height="116.364" viewBox="0 0 100.792 116.364"><defs><style>.a{fill:#ff415b;}.b{fill:url(#a);}.c{fill:none;stroke:#4db1de;stroke-width:9px;}</style><linearGradient id="a" x1="0.5" x2="0.5" y2="1" gradientUnits="objectBoundingBox"><stop offset="0" stop-color="#ffb627"/><stop offset="1" stop-color="#ff7f11"/></linearGradient></defs><g transform="translate(-487 -1030.614)"><g transform="translate(487 1030.614)"><path class="a" d="M-38.079,327.177-52.544,356.33a77.131,77.131,0,0,1-13.676,9.523l-5.345,2.578c-13.953-7.656-33.334-22.517-33.334-38.511,0-11.257,7.684-20.847,18.594-20.847A21.323,21.323,0,0,1-71.565,315a22.379,22.379,0,0,1,15.043-5.927C-46.527,309.073-39.216,317.137-38.079,327.177Z" transform="translate(104.899 -309.073)"/><path class="b" d="M-19.653,335.9c0,15.938-14.722,28.495-29.129,36.446l-4.755,3.812-4.757-3.812c-24.989-13.73-28.822-28.618-28.822-36.446,0-11.352,7.747-21,18.729-21a21.45,21.45,0,0,1,14.85,5.968A22.516,22.516,0,0,1-38.384,314.9C-27.395,314.9-19.653,324.558-19.653,335.9Z" transform="translate(120.083 -299.106)"/></g><g transform="translate(499.671 1058.858)"><g transform="translate(0 0)"><path class="c" d="M22.846,68.3A31.644,31.644,0,1,1,54.49,99.939,31.68,31.68,0,0,1,22.846,68.3ZM104.6,113.437l-4.97,4.971L79.226,98A39.012,39.012,0,0,0,84.2,93.031Z" transform="translate(-22.846 -36.652)"/></g></g></g></svg>