<svg xmlns="http://www.w3.org/2000/svg" width="110" height="110.012" viewBox="0 0 110 110.012"><defs><style>.a{fill:#ffac23;}.b{fill:#ffa721;}.c{fill:#ff415b;}.d{fill:#fff;}</style></defs><g transform="translate(-0.026)"><path class="a" d="M252.121,221.647v32.227a9.655,9.655,0,0,1-9.668,9.668h-9.668v9.668a3.245,3.245,0,0,1-5.027,2.707L216.671,268.5l-7.412-4.963H190.675a9.655,9.655,0,0,1-9.668-9.668V234.538l35.664-16.564,12.891-5.994h12.891A9.655,9.655,0,0,1,252.121,221.647Z" transform="translate(-142.094 -166.432)"/><path class="b" d="M382.44,221.647v32.227a9.655,9.655,0,0,1-9.668,9.668H363.1v9.668a3.245,3.245,0,0,1-5.027,2.707L346.991,268.5V217.973l12.891-5.994h12.891A9.655,9.655,0,0,1,382.44,221.647Z" transform="translate(-272.414 -166.432)"/><path class="c" d="M81.022,0H9.694A9.655,9.655,0,0,0,.026,9.668V61.66a9.655,9.655,0,0,0,9.668,9.668h9.668V81a3.28,3.28,0,0,0,1.676,2.836A3.772,3.772,0,0,0,24.6,83.7L43.1,71.329h37.92a9.655,9.655,0,0,0,9.668-9.668V9.668A9.655,9.655,0,0,0,81.022,0Z"/><path class="c" d="M256.337,9.668V61.66a9.655,9.655,0,0,1-9.668,9.668H211.005V0h35.664A9.655,9.655,0,0,1,256.337,9.668Z" transform="translate(-165.647)"/><path class="d" d="M148.407,91.991a10.51,10.51,0,0,0-8.057,3.674,10.652,10.652,0,0,0-8.121-3.674c-6.316,0-11.215,5.221-11.215,11.924,0,6.961,5.414,11.6,12.955,17.918,1.289,1.1,2.707,2.256,4.125,3.545a3.676,3.676,0,0,0,2.256.774h.064a3.16,3.16,0,0,0,2.063-.774c1.482-1.289,2.836-2.449,4.125-3.48,2.321-2,4.533-3.674,6.273-5.35,3.609-3.352,6.961-7.283,6.961-12.633A11.649,11.649,0,0,0,148.407,91.991Z" transform="translate(-94.992 -72.225)"/><path class="d" d="M230.49,103.915c0,5.35-3.352,9.281-6.961,12.633-1.74,1.676-3.953,3.352-6.273,5.35-1.289,1.031-2.642,2.191-4.125,3.48a3.16,3.16,0,0,1-2.062.774H211V95.665a10.51,10.51,0,0,1,8.057-3.674A11.649,11.649,0,0,1,230.49,103.915Z" transform="translate(-165.646 -72.225)"/></g></svg>