<svg xmlns="http://www.w3.org/2000/svg" xmlns:xlink="http://www.w3.org/1999/xlink" width="125.202" height="107.328" viewBox="0 0 125.202 107.328"><defs><style>.a{fill:url(#a);}.b{fill:#518fbb;}.c{fill:#70bda5;}.d{fill:#9ce0f6;}.e{fill:#6cbeee;}</style><linearGradient id="a" x1="0.5" x2="0.5" y2="1" gradientUnits="objectBoundingBox"><stop offset="0" stop-color="#ffb627"/><stop offset="1" stop-color="#ff7f11"/></linearGradient></defs><g transform="translate(122.456 -367.287)"><g transform="translate(-85.638 367.287)"><path class="a" d="M-70.98,367.287A16.655,16.655,0,0,0-81.8,371.212l-.067.057a17.417,17.417,0,0,0-11.068-3.982c-8.212,0-14.647,7.16-14.647,16.3,0,6.185,3.1,18.149,23.871,28.752l1.666.851.245-.126,1.423-.725c11.514-5.878,24.042-15.81,24.042-28.752C-56.333,374.447-62.768,367.287-70.98,367.287Z" transform="translate(107.58 -367.287)"/></g><path class="a" d="M-71.7,383.59c0,12.942-12.528,22.874-24.042,28.752l-1.423.725V371.212a16.655,16.655,0,0,1,10.818-3.925C-78.133,367.287-71.7,374.447-71.7,383.59Z" transform="translate(37.307 0)"/><path class="b" d="M-34.53,416.285l-7.826,3.668-7.759-3.668c0-8.1-6.979-14.672-15.587-14.672a15.984,15.984,0,0,0-11.692,4.97l-9.088,9.7h-.171l-10.237.245-.295-11.278.052-.057,8.044-8.311A31.964,31.964,0,0,1-65.7,386.939C-48.486,386.939-34.53,400.079-34.53,416.285Z" transform="translate(37.276 28.986)"/><path class="c" d="M-92.758,398.8l-.086.09-.086-.09Z" transform="translate(43.552 46.475)"/><path class="d" d="M-59.8,411.869l-.057.059-8.041,8.308a31.964,31.964,0,0,1-23.389,9.942c-17.216,0-31.17-13.137-31.17-29.343l7.823-3.423,7.759,3.423c0,8.1,6.979,14.672,15.587,14.672a15.982,15.982,0,0,0,11.694-4.972l9.086-9.7.087-.092.087.092,12.516,4.4Z" transform="translate(0 44.435)"/><path class="e" d="M2.746,416.285c0,16.206-13.956,29.343-31.172,29.343a31.962,31.962,0,0,1-23.386-9.942c-.567-.594-3.886-4.069-8.044-8.427-3.282-3.438-7.088-7.425-10.474-10.974-5.1-5.341-9.251-9.692-9.261-9.7a15.99,15.99,0,0,0-11.694-4.97c-8.608,0-15.587,6.569-15.587,14.672h-15.582c0-16.206,13.954-29.346,31.17-29.346A31.966,31.966,0,0,1-67.9,396.883l8.041,8.427c3.284,3.438,7.088,7.422,10.479,10.974,4.992,5.227,9.081,9.511,9.259,9.7a15.977,15.977,0,0,0,11.692,4.972c8.608,0,15.587-6.569,15.587-14.672Z" transform="translate(0 28.986)"/></g></svg>