<svg xmlns="http://www.w3.org/2000/svg" width="136.533" height="128" viewBox="0 0 136.533 128"><defs><style>.a{opacity:0.14;}.b{fill:#fff;}</style></defs><g class="a" transform="translate(0 -16)"><path class="b" d="M132.533,40H117.867A45.672,45.672,0,0,0,78.717,62.113a12.082,12.082,0,0,0-4.572-4.569A43.07,43.07,0,0,1,116.267,24a4,4,0,0,0,0-8,51.216,51.216,0,0,0-48,33.363A51.217,51.217,0,0,0,20.267,16a4,4,0,1,0,0,8A43.07,43.07,0,0,1,62.388,57.545a12.085,12.085,0,0,0-4.572,4.569A45.671,45.671,0,0,0,18.667,40H4a4,4,0,0,0-4,4v6.111A32.948,32.948,0,0,0,16.105,78.427a27.969,27.969,0,0,0,12.243,20.7A23.969,23.969,0,0,0,16,120a24.154,24.154,0,0,0,47.254,6.9,11.959,11.959,0,0,0,10.025,0,24.107,24.107,0,1,0,34.906-27.774,27.969,27.969,0,0,0,12.243-20.7,32.941,32.941,0,0,0,16.105-28.316V44a4,4,0,0,0-4-4ZM56.267,120a16.134,16.134,0,1,1-16-16h16Zm0-24h-12A20.158,20.158,0,0,1,24,76a4,4,0,0,0-2.211-3.578A24.808,24.808,0,0,1,8,50.111V48H18.667a37.51,37.51,0,0,1,37.6,37.333Zm16,20a4,4,0,0,1-8,0V68a4,4,0,0,1,8,0Zm40.267,4a16.134,16.134,0,0,1-32.267,0V104h16A16.153,16.153,0,0,1,112.533,120Zm16-69.889a24.808,24.808,0,0,1-13.789,22.311A4,4,0,0,0,112.533,76,20.158,20.158,0,0,1,92.267,96h-12V85.333A37.51,37.51,0,0,1,117.867,48h10.667Z"/></g></svg>