<svg xmlns="http://www.w3.org/2000/svg" xmlns:xlink="http://www.w3.org/1999/xlink" width="177" height="66" viewBox="0 0 177 66"><defs><style>.a{fill:#4267b2;}.b,.c{fill:#fff;}.b{font-size:16px;font-family:Poppins-Medium, Poppins;font-weight:500;}.d{filter:url(#a);}</style><filter id="a" x="0" y="0" width="177" height="66" filterUnits="userSpaceOnUse"><feOffset dy="3" input="SourceAlpha"/><feGaussianBlur stdDeviation="3" result="b"/><feFlood flood-opacity="0.161"/><feComposite operator="in" in2="b"/><feComposite in="SourceGraphic"/></filter></defs><g transform="translate(-792 -566)"><g class="d" transform="matrix(1, 0, 0, 1, 792, 566)"><rect class="a" width="159" height="48" rx="5" transform="translate(9 6)"/></g><text class="b" transform="translate(818 584)"><tspan x="0" y="17">Login with </tspan></text><g transform="translate(920 583)"><path class="c" d="M25,4.167A4.318,4.318,0,0,0,20.833,0H4.167A4.318,4.318,0,0,0,0,4.167V20.833A4.318,4.318,0,0,0,4.167,25H12.5V15.556H9.444V11.389H12.5V9.766c0-2.8,2.1-5.321,4.687-5.321h3.368V8.611H17.187c-.369,0-.8.448-.8,1.118v1.66h4.167v4.167H16.389V25h4.444A4.318,4.318,0,0,0,25,20.833Z" transform="translate(0 0)"/></g></g></svg>