<svg xmlns="http://www.w3.org/2000/svg" width="188.79" height="8" viewBox="0 0 188.79 8"><defs><style>.a{fill:#fff;}</style></defs><g transform="translate(-380.987 -214.882)"><g transform="translate(461.424 214.882)"><g transform="translate(0 1.12)"><path class="a" d="M579.81,224.361c-.05,0-.1,0-.153-.006-.271.005-2.7-.039-4.357-3.034a8.366,8.366,0,0,0-1.936-2.386l-.1-.079a3.12,3.12,0,0,0-2.943-.546,2.884,2.884,0,0,0-1.937,2.026q-.03.114-.053.231a2.534,2.534,0,0,0,.492,2.021,2.293,2.293,0,0,0,2.352,1.042,2.009,2.009,0,0,0,1.51-1.587,1.514,1.514,0,0,0-.281-1.174,1.361,1.361,0,0,0-1.39-.64,1.162,1.162,0,0,0-.879.922.872.872,0,0,0,.675,1.023l-.13.66a1.546,1.546,0,0,1-1.206-1.809,1.837,1.837,0,0,1,1.392-1.453,2.027,2.027,0,0,1,2.081.9,2.19,2.19,0,0,1,.4,1.7,2.681,2.681,0,0,1-2.019,2.117,2.972,2.972,0,0,1-3.043-1.294,3.2,3.2,0,0,1-.615-2.553c.018-.094.04-.186.064-.277a3.546,3.546,0,0,1,2.38-2.493,3.79,3.79,0,0,1,3.576.664l.09.073a8.936,8.936,0,0,1,2.106,2.586c1.527,2.755,3.74,2.687,3.762,2.689h.042a1.427,1.427,0,0,0,1.044-.34,1.478,1.478,0,0,0,.515-1.018,1.112,1.112,0,0,0-.993-1.2.769.769,0,0,0-.6.227.738.738,0,0,0-.243.782.582.582,0,0,0,.5.386l-.054.671a1.257,1.257,0,0,1-1.077-.828,1.4,1.4,0,0,1,.406-1.493,1.451,1.451,0,0,1,1.13-.415,1.788,1.788,0,0,1,1.605,1.924,2.147,2.147,0,0,1-.75,1.478A2.093,2.093,0,0,1,579.81,224.361Z" transform="translate(-567.615 -217.481)"/></g><g transform="translate(13.641 1.12)"><path class="a" d="M601.382,224.361a2.091,2.091,0,0,1-1.364-.506,2.149,2.149,0,0,1-.75-1.478,1.788,1.788,0,0,1,1.605-1.924,1.456,1.456,0,0,1,1.13.415,1.4,1.4,0,0,1,.406,1.493,1.256,1.256,0,0,1-1.076.828l-.054-.671a.583.583,0,0,0,.5-.386.739.739,0,0,0-.244-.782.775.775,0,0,0-.6-.227,1.111,1.111,0,0,0-.993,1.2,1.477,1.477,0,0,0,.515,1.018,1.42,1.42,0,0,0,1.044.34h.042c.09,0,2.246.047,3.761-2.687a8.948,8.948,0,0,1,2.115-2.594l.082-.067a3.79,3.79,0,0,1,3.576-.665,3.545,3.545,0,0,1,2.38,2.493q.036.136.063.277a3.2,3.2,0,0,1-.614,2.553,2.972,2.972,0,0,1-3.043,1.294,2.682,2.682,0,0,1-2.019-2.117,2.191,2.191,0,0,1,.4-1.7,2.03,2.03,0,0,1,2.081-.9,1.838,1.838,0,0,1,1.392,1.453,1.547,1.547,0,0,1-1.206,1.809l-.131-.66a.872.872,0,0,0,.675-1.023,1.163,1.163,0,0,0-.879-.922,1.362,1.362,0,0,0-1.39.64,1.513,1.513,0,0,0-.281,1.174,2.009,2.009,0,0,0,1.51,1.587,2.291,2.291,0,0,0,2.352-1.042,2.535,2.535,0,0,0,.492-2.02c-.015-.078-.033-.156-.053-.232a2.882,2.882,0,0,0-1.937-2.026,3.118,3.118,0,0,0-2.944.547l-.089.073a8.373,8.373,0,0,0-1.945,2.394c-1.659,2.994-4.076,3.04-4.356,3.032C601.484,224.359,601.433,224.361,601.382,224.361Z" transform="translate(-599.263 -217.482)"/></g><g transform="translate(12.869 0)"><path class="a" d="M598.582,219.128a1.075,1.075,0,0,1-1.071-.9h0a4.911,4.911,0,0,1,.786-2.892l.285-.452.285.452a4.907,4.907,0,0,1,.786,2.892A1.076,1.076,0,0,1,598.582,219.128Zm-.409-1.031a.413.413,0,0,0,.818,0,.981.981,0,1,0-.818,0Z" transform="translate(-597.473 -214.882)"/></g></g><g transform="translate(558.119 215.457)"><g transform="translate(7.48 2.292)"><path class="a" d="M810.621,223.778a2.069,2.069,0,0,1-.411-.039,1.1,1.1,0,0,1,0-2.165h0a4.721,4.721,0,0,1,2.855.8l.433.282-.433.282A5.334,5.334,0,0,1,810.621,223.778Zm-.279-1.544a.43.43,0,0,0,0,.845,3.306,3.306,0,0,0,1.848-.422,3.294,3.294,0,0,0-1.848-.422Z" transform="translate(-809.319 -221.535)"/></g><g transform="translate(0 0)"><path class="a" d="M798.187,219.971l-.082,0h0a2.733,2.733,0,0,1-2.3-1.593,3.976,3.976,0,0,0-.916-1.132l-.052-.043a1.381,1.381,0,0,0-1.3-.241,1.265,1.265,0,0,0-.85.888c-.009.034-.017.069-.024.1a1.092,1.092,0,0,0,.213.869.977.977,0,0,0,.994.454.827.827,0,0,0,.622-.654.581.581,0,0,0-.109-.45.509.509,0,0,0-.516-.253.408.408,0,0,0-.307.324.262.262,0,0,0,.2.31l-.13.661a.938.938,0,0,1-.733-1.1,1.081,1.081,0,0,1,.82-.855,1.17,1.17,0,0,1,1.207.51,1.257,1.257,0,0,1,.228.976,1.5,1.5,0,0,1-1.131,1.184,1.639,1.639,0,0,1-1.684-.706,1.781,1.781,0,0,1-.336-1.4c.01-.05.021-.1.035-.15a1.95,1.95,0,0,1,1.293-1.355,2.052,2.052,0,0,1,1.935.359l.045.037a4.606,4.606,0,0,1,1.086,1.332,2.272,2.272,0,0,0,1.434,1.212.8.8,0,0,1-.3-.391.861.861,0,0,1,.243-.92.891.891,0,0,1,.694-.254,1.058,1.058,0,0,1,.951,1.137,1.235,1.235,0,0,1-.431.849A1.207,1.207,0,0,1,798.187,219.971Zm.193-1.608a.227.227,0,0,0-.15.066.207.207,0,0,0-.08.21.12.12,0,0,0,.1.08l-.047.579a.539.539,0,0,0,.332-.13.565.565,0,0,0,.2-.389.382.382,0,0,0-.339-.414Z" transform="translate(-791.964 -216.217)"/></g><g transform="translate(0 3.078)"><path class="a" d="M793.962,227.113a2.08,2.08,0,0,1-.64-.1,1.953,1.953,0,0,1-1.293-1.355c-.013-.049-.025-.1-.034-.15a1.779,1.779,0,0,1,.336-1.4,1.641,1.641,0,0,1,1.684-.706,1.5,1.5,0,0,1,1.131,1.184,1.255,1.255,0,0,1-.228.976,1.17,1.17,0,0,1-1.207.511,1.081,1.081,0,0,1-.82-.855.938.938,0,0,1,.733-1.1l.13.661a.262.262,0,0,0-.2.309.407.407,0,0,0,.307.324.509.509,0,0,0,.516-.253.581.581,0,0,0,.109-.45.828.828,0,0,0-.622-.655.978.978,0,0,0-.994.454,1.091,1.091,0,0,0-.213.868c.006.036.015.07.023.1a1.267,1.267,0,0,0,.85.889,1.381,1.381,0,0,0,1.3-.242l.044-.036a3.981,3.981,0,0,0,.925-1.14,2.756,2.756,0,0,1,2.3-1.591,1.2,1.2,0,0,1,.869.289,1.236,1.236,0,0,1,.431.85,1.058,1.058,0,0,1-.951,1.137.89.89,0,0,1-.694-.254.861.861,0,0,1-.243-.92.8.8,0,0,1,.306-.391,2.267,2.267,0,0,0-1.433,1.21,4.61,4.61,0,0,1-1.095,1.34l-.037.03A2.048,2.048,0,0,1,793.962,227.113Zm4.242-3.08.047.578a.12.12,0,0,0-.1.08.206.206,0,0,0,.08.21.225.225,0,0,0,.164.065.382.382,0,0,0,.339-.414.564.564,0,0,0-.2-.39A.539.539,0,0,0,798.2,224.033Z" transform="translate(-791.964 -223.359)"/></g></g><g transform="translate(489.003 218.537)"><rect class="a" width="70.737" height="0.673" transform="translate(0 0)"/></g><g transform="translate(380.987 215.457)"><g transform="translate(0 0)"><g transform="translate(0 2.292)"><path class="a" d="M383.864,223.778a5.331,5.331,0,0,1-2.443-.84l-.434-.282.434-.282a4.711,4.711,0,0,1,2.855-.8h0a1.1,1.1,0,0,1,0,2.165A2.072,2.072,0,0,1,383.864,223.778Zm-1.57-1.122a3.307,3.307,0,0,0,1.849.423.43.43,0,0,0,0-.845h0A3.292,3.292,0,0,0,382.294,222.657Z" transform="translate(-380.987 -221.535)"/></g><g transform="translate(4.215)"><path class="a" d="M391.987,219.971a1.207,1.207,0,0,1-.787-.291,1.234,1.234,0,0,1-.431-.85,1.058,1.058,0,0,1,.951-1.137.905.905,0,0,1,.694.254.861.861,0,0,1,.243.92.8.8,0,0,1-.305.391,2.267,2.267,0,0,0,1.433-1.21,4.611,4.611,0,0,1,1.1-1.34l.037-.03a2.05,2.05,0,0,1,1.935-.36,1.953,1.953,0,0,1,1.293,1.355c.013.049.024.1.034.148a1.78,1.78,0,0,1-.336,1.4,1.641,1.641,0,0,1-1.685.706,1.5,1.5,0,0,1-1.131-1.184,1.258,1.258,0,0,1,.228-.976,1.173,1.173,0,0,1,1.207-.51,1.082,1.082,0,0,1,.82.855.938.938,0,0,1-.733,1.1l-.13-.661a.262.262,0,0,0,.2-.309.408.408,0,0,0-.307-.325.509.509,0,0,0-.516.253.581.581,0,0,0-.109.45.827.827,0,0,0,.621.654.977.977,0,0,0,.994-.454,1.089,1.089,0,0,0,.213-.868c-.007-.035-.015-.07-.024-.1a1.264,1.264,0,0,0-.85-.887,1.38,1.38,0,0,0-1.3.241l-.044.036a3.983,3.983,0,0,0-.925,1.14,2.7,2.7,0,0,1-2.3,1.591Zm-.194-1.608h-.013a.382.382,0,0,0-.339.414.566.566,0,0,0,.2.39.539.539,0,0,0,.332.13l-.047-.579a.119.119,0,0,0,.1-.08.206.206,0,0,0-.08-.21A.229.229,0,0,0,391.793,218.363Z" transform="translate(-390.766 -216.217)"/></g><g transform="translate(4.215 3.078)"><path class="a" d="M396.211,227.114a2.049,2.049,0,0,1-1.295-.461l-.045-.037a4.6,4.6,0,0,1-1.086-1.332,2.27,2.27,0,0,0-1.434-1.211.8.8,0,0,1,.3.391.861.861,0,0,1-.242.921.9.9,0,0,1-.695.254,1.058,1.058,0,0,1-.951-1.137,1.234,1.234,0,0,1,.431-.849,1.2,1.2,0,0,1,.868-.289h0a2.734,2.734,0,0,1,2.3,1.593,3.982,3.982,0,0,0,.916,1.132l.053.042a1.38,1.38,0,0,0,1.3.241,1.265,1.265,0,0,0,.85-.888c.009-.034.017-.069.024-.1a1.089,1.089,0,0,0-.213-.868.974.974,0,0,0-.994-.454.827.827,0,0,0-.621.654.581.581,0,0,0,.109.45.508.508,0,0,0,.516.253.407.407,0,0,0,.307-.324.262.262,0,0,0-.2-.309l.131-.661a.938.938,0,0,1,.732,1.1,1.08,1.08,0,0,1-.82.855,1.171,1.171,0,0,1-1.207-.511,1.256,1.256,0,0,1-.228-.976,1.5,1.5,0,0,1,1.131-1.184,1.642,1.642,0,0,1,1.685.706,1.778,1.778,0,0,1,.336,1.4c-.01.05-.021.1-.034.148a1.953,1.953,0,0,1-1.293,1.356A2.077,2.077,0,0,1,396.211,227.114Zm-4.242-3.08a.536.536,0,0,0-.332.13.565.565,0,0,0-.2.389.382.382,0,0,0,.339.414.221.221,0,0,0,.165-.066.206.206,0,0,0,.079-.209.121.121,0,0,0-.1-.08Z" transform="translate(-390.766 -223.359)"/></g></g><g transform="translate(10.038 3.08)"><rect class="a" width="70.737" height="0.673"/></g></g></g></svg>