<svg xmlns="http://www.w3.org/2000/svg" width="305.067" height="286" viewBox="0 0 305.067 286"><defs><style>.a{opacity:0.16;isolation:isolate;}.b{fill:#ffb627;}</style></defs><g class="a" transform="translate(0 -16)"><path class="b" d="M296.129,69.625H263.358a102.048,102.048,0,0,0-87.474,49.409,27,27,0,0,0-10.216-10.208,96.235,96.235,0,0,1,94.115-74.951,8.938,8.938,0,0,0,0-17.875,114.436,114.436,0,0,0-107.25,74.546A114.439,114.439,0,0,0,45.283,16a8.938,8.938,0,1,0,0,17.875A96.236,96.236,0,0,1,139.4,108.826a27,27,0,0,0-10.216,10.208A102.046,102.046,0,0,0,41.708,69.625H8.938A8.938,8.938,0,0,0,0,78.563V92.218a73.618,73.618,0,0,0,35.985,63.268,62.493,62.493,0,0,0,27.355,46.246A53.557,53.557,0,0,0,35.75,248.375C35.75,277.9,60.21,302,89.971,302a53.719,53.719,0,0,0,51.363-38.21,26.721,26.721,0,0,0,22.4,0A53.72,53.72,0,0,0,215.1,302c29.745,0,54.221-24.09,54.221-53.625a53.573,53.573,0,0,0-27.591-46.643,62.493,62.493,0,0,0,27.355-46.246,73.6,73.6,0,0,0,35.985-63.268V78.563a8.938,8.938,0,0,0-8.937-8.937ZM125.721,248.375a35.791,35.791,0,0,1-35.75,35.75c-20.041,0-36.346-16.037-36.346-35.75s16.3-35.75,36.346-35.75h35.75Zm0-53.625H98.908c-24.969,0-45.283-20.047-45.283-44.688a8.938,8.938,0,0,0-4.941-7.994,55.429,55.429,0,0,1-30.809-49.85V87.5H41.708c46.325,0,84.013,37.421,84.013,83.417Zm35.75,44.687a8.937,8.937,0,1,1-17.875,0V132.188a8.937,8.937,0,1,1,17.875,0Zm89.971,8.938c0,19.713-16.3,35.75-36.346,35.75a35.791,35.791,0,0,1-35.75-35.75v-35.75H215.1C235.137,212.625,251.442,228.662,251.442,248.375Zm35.75-156.157a55.431,55.431,0,0,1-30.809,49.851,8.937,8.937,0,0,0-4.941,7.994c0,24.641-20.314,44.688-45.283,44.688H179.346V170.917c0-46,37.688-83.417,84.012-83.417h23.833Z" transform="translate(0 0)"/></g></svg>