<svg xmlns="http://www.w3.org/2000/svg" width="19.167" height="17.969" viewBox="0 0 19.167 17.969"><defs><style>.a{fill:#21ba45;}</style></defs><g transform="translate(0 -16)"><path class="a" d="M18.605,19.369H16.546a6.411,6.411,0,0,0-5.5,3.1,1.7,1.7,0,0,0-.642-.641,6.046,6.046,0,0,1,5.913-4.709.562.562,0,1,0,0-1.123,7.19,7.19,0,0,0-6.738,4.684A7.19,7.19,0,0,0,2.845,16a.562.562,0,1,0,0,1.123,6.046,6.046,0,0,1,5.913,4.709,1.7,1.7,0,0,0-.642.641,6.411,6.411,0,0,0-5.5-3.1H.562A.562.562,0,0,0,0,19.931v.858a4.625,4.625,0,0,0,2.261,3.975A3.926,3.926,0,0,0,3.98,27.669,3.365,3.365,0,0,0,2.246,30.6a3.391,3.391,0,0,0,6.634.968,1.679,1.679,0,0,0,1.407,0,3.384,3.384,0,1,0,4.9-3.9,3.926,3.926,0,0,0,1.719-2.906,4.624,4.624,0,0,0,2.261-3.975v-.858a.562.562,0,0,0-.562-.562ZM7.9,30.6a2.265,2.265,0,1,1-2.246-2.246H7.9Zm0-3.369H6.214a2.83,2.83,0,0,1-2.845-2.808.562.562,0,0,0-.31-.5,3.483,3.483,0,0,1-1.936-3.132v-.3h1.5A5.266,5.266,0,0,1,7.9,25.733Zm2.246,2.808a.562.562,0,1,1-1.123,0V23.3a.562.562,0,0,1,1.123,0ZM15.8,30.6a2.265,2.265,0,0,1-4.53,0V28.353h2.246A2.268,2.268,0,0,1,15.8,30.6Zm2.246-9.811a3.483,3.483,0,0,1-1.936,3.132.561.561,0,0,0-.31.5,2.83,2.83,0,0,1-2.845,2.808H11.268v-1.5a5.266,5.266,0,0,1,5.278-5.241h1.5Z"/></g></svg>