<svg xmlns="http://www.w3.org/2000/svg" xmlns:xlink="http://www.w3.org/1999/xlink" width="179" height="66" viewBox="0 0 179 66"><defs><style>.a{fill:#fff;stroke:rgba(0,0,0,0.11);}.b{fill:#161032;font-size:16px;font-family:Poppins-Medium, Poppins;font-weight:500;}.c{fill:#fbbb00;}.d{fill:#518ef8;}.e{fill:#28b446;}.f{fill:#f14336;}.g{stroke:none;}.h{fill:none;}.i{filter:url(#a);}</style><filter id="a" x="0" y="0" width="179" height="66" filterUnits="userSpaceOnUse"><feOffset dy="3" input="SourceAlpha"/><feGaussianBlur stdDeviation="3" result="b"/><feFlood flood-color="#2c2c2c" flood-opacity="0.122"/><feComposite operator="in" in2="b"/><feComposite in="SourceGraphic"/></filter></defs><g transform="translate(-982.5 -610)"><g transform="translate(991 616)"><g class="i" transform="matrix(1, 0, 0, 1, -8.5, -6)"><g class="a" transform="translate(9 6)"><rect class="g" width="161" height="48" rx="5"/><rect class="h" x="0.5" y="0.5" width="160" height="47" rx="4.5"/></g></g><text class="b" transform="translate(19.5 12)"><tspan x="0" y="17">Login with </tspan></text><g transform="translate(114 12)"><path class="c" d="M5.393,146.4l-.847,3.162-3.1.065a12.188,12.188,0,0,1-.09-11.361h0l2.756.505,1.207,2.74a7.261,7.261,0,0,0,.068,4.889Z" transform="translate(0 -131.697)"/><path class="d" d="M273.315,208.176a12.162,12.162,0,0,1-4.337,11.761h0l-3.471-.177-.491-3.067a7.251,7.251,0,0,0,3.12-3.7h-6.506v-4.813h11.687Z" transform="translate(-249.194 -198.282)"/><path class="e" d="M48.842,316.358h0a12.17,12.17,0,0,1-18.334-3.722l3.943-3.227a7.236,7.236,0,0,0,10.427,3.7Z" transform="translate(-29.059 -294.704)"/><path class="f" d="M47.2,2.8,43.255,6.028A7.235,7.235,0,0,0,32.588,9.816L28.625,6.571h0A12.169,12.169,0,0,1,47.2,2.8Z" transform="translate(-27.264)"/></g></g></g></svg>